<svg width="18" height="16" viewBox="0 0 18 16" fill="none" xmlns="http://www.w3.org/2000/svg">
<path d="M10.793 0.100715C10.3887 0.28285 10.125 0.693545 10.125 1.14353V3.42914H6.1875C2.77031 3.42914 0 6.2433 0 9.71457C0 13.7608 2.86523 15.5679 3.52266 15.9321C3.61055 15.9821 3.70898 16 3.80742 16C4.19063 16 4.5 15.6822 4.5 15.2965C4.5 15.0286 4.34883 14.7822 4.15547 14.6001C3.825 14.2822 3.375 13.6572 3.375 12.5716C3.375 10.6788 4.88672 9.14317 6.75 9.14317H10.125V11.4288C10.125 11.8788 10.3852 12.2895 10.793 12.4716C11.2008 12.6537 11.6719 12.5787 12.0023 12.2787L17.6273 7.13611C17.8629 6.91827 18 6.61114 18 6.28615C18 5.96117 17.8664 5.65404 17.6273 5.43619L12.0023 0.293563C11.6719 -0.00999433 11.1973 -0.084991 10.793 0.100715Z" fill="white"/>
</svg>
