<svg width="26" height="26" viewBox="0 0 26 26" fill="none" xmlns="http://www.w3.org/2000/svg">
<path fill-rule="evenodd" clip-rule="evenodd" d="M18.5609 23.1194C16.7066 24.2593 14.5238 24.9167 12.1875 24.9167C5.45653 24.9167 0 19.4601 0 12.7292C0 5.9982 5.45653 0.541667 12.1875 0.541667C18.9185 0.541667 24.375 5.9982 24.375 12.7292C24.375 14.7403 23.8879 16.6377 23.0252 18.3097L25.8544 25.8544L18.5609 23.1194ZM2.11957 12.7292C2.11957 7.1688 6.62713 2.66123 12.1875 2.66123C17.7479 2.66123 22.2554 7.1688 22.2554 12.7292C22.2554 14.7351 21.6688 16.604 20.6578 18.1737L21.5452 20.5379L21.5463 20.5366L22.152 22.152L20.5831 21.5637L18.3269 20.7092C16.6276 22.0185 14.4985 22.7971 12.1875 22.7971C6.62713 22.7971 2.11957 18.2895 2.11957 12.7292Z" fill="#2D2D2F"/>
</svg>
