<svg width="18" height="14" viewBox="0 0 18 14" fill="none" xmlns="http://www.w3.org/2000/svg">
<path d="M1.09139 0.139604C0.798896 -0.0846103 0.374215 -0.0326582 0.143593 0.251711C-0.087028 0.536081 -0.0335914 0.948963 0.258904 1.17318L16.9086 13.8604C17.2011 14.0846 17.6258 14.0327 17.8564 13.7483C18.0871 13.464 18.0336 13.0511 17.7411 12.8269L14.7824 10.5738C15.8962 9.46364 16.6499 8.21952 17.0296 7.33634C17.1224 7.12033 17.1224 6.87971 17.0296 6.6637C16.6105 5.68754 15.7302 4.2657 14.414 3.079C13.0921 1.88137 11.2725 0.875137 9.00002 0.875137C7.08192 0.875137 5.48445 1.59426 4.23853 2.5376L1.09139 0.139604ZM5.3382 3.37431C6.35631 2.67159 7.57973 2.18761 9.00002 2.18761C10.8337 2.18761 12.3412 2.99697 13.4971 4.03875C14.5799 5.01763 15.328 6.17972 15.7105 7.00002C15.3562 7.76563 14.6812 8.82654 13.7165 9.75895L12.2034 8.60506C12.4593 8.12382 12.6028 7.57969 12.6028 7.00002C12.6028 5.06685 10.9912 3.50009 9.00283 3.50009C8.09722 3.50009 7.26754 3.82547 6.63474 4.3614L5.3382 3.37431ZM11.1065 7.7711L8.8144 6.02386C8.93252 5.79145 9.00002 5.52622 9.00002 5.25005C9.00002 5.09966 8.98033 4.95201 8.94377 4.81256H9.00002C10.2431 4.81256 11.25 5.79145 11.25 7.00002C11.25 7.27072 11.1994 7.53048 11.1065 7.7711ZM11.3709 11.3339C10.6537 11.632 9.86344 11.8124 9.00002 11.8124C7.1663 11.8124 5.65882 11.0031 4.5029 9.96129C3.4201 8.9824 2.67199 7.82031 2.2895 7.00002C2.52293 6.4969 2.89418 5.86527 3.3976 5.22818L2.33731 4.41608C1.69607 5.22818 1.23764 6.03754 0.970455 6.6637C0.877644 6.87971 0.877644 7.12033 0.970455 7.33634C1.38951 8.31249 2.26981 9.73434 3.58604 10.921C4.90789 12.1187 6.72755 13.1249 9.00002 13.1249C10.3444 13.1249 11.5284 12.7722 12.5493 12.2362L11.3709 11.3339ZM5.40007 7.00002C5.40007 8.93318 7.01161 10.4999 9.00002 10.4999C9.37407 10.4999 9.73407 10.4453 10.0744 10.3414L8.49378 9.13279C7.83285 8.98514 7.28161 8.55311 6.98349 7.97617L5.4057 6.7676C5.40007 6.84416 5.39726 6.92072 5.39726 7.00002H5.40007Z" fill="#A6A6A6"/>
</svg>
