<svg width="111" height="31" viewBox="0 0 111 31" fill="none" xmlns="http://www.w3.org/2000/svg">
<path d="M0.0681819 30V8.18182H3.30682V11.5909H3.59091C4.04545 10.4261 4.77936 9.52178 5.79261 8.87784C6.80587 8.22443 8.02273 7.89773 9.44318 7.89773C10.8826 7.89773 12.0805 8.22443 13.0369 8.87784C14.0028 9.52178 14.7557 10.4261 15.2955 11.5909H15.5227C16.0814 10.464 16.9195 9.56913 18.0369 8.90625C19.1544 8.2339 20.4943 7.89773 22.0568 7.89773C24.0076 7.89773 25.6032 8.50852 26.8438 9.73011C28.0843 10.9422 28.7045 12.8314 28.7045 15.3977V30H25.3523V15.3977C25.3523 13.7879 24.9119 12.6373 24.0312 11.946C23.1506 11.2547 22.1136 10.9091 20.9205 10.9091C19.3864 10.9091 18.1979 11.3731 17.3551 12.3011C16.5123 13.2197 16.0909 14.3845 16.0909 15.7955V30H12.6818V15.0568C12.6818 13.8163 12.2794 12.8172 11.4744 12.0597C10.6695 11.2926 9.63258 10.9091 8.36364 10.9091C7.49242 10.9091 6.67803 11.1411 5.92045 11.6051C5.17235 12.0691 4.56629 12.7131 4.10227 13.5369C3.64773 14.3513 3.42045 15.2936 3.42045 16.3636V30H0.0681819ZM43.6974 30.4545C41.7277 30.4545 39.9995 29.9858 38.5128 29.0483C37.0355 28.1108 35.8802 26.7992 35.0469 25.1136C34.223 23.428 33.8111 21.4583 33.8111 19.2045C33.8111 16.9318 34.223 14.9479 35.0469 13.2528C35.8802 11.5578 37.0355 10.2415 38.5128 9.30398C39.9995 8.36648 41.7277 7.89773 43.6974 7.89773C45.6671 7.89773 47.3906 8.36648 48.8679 9.30398C50.3546 10.2415 51.5099 11.5578 52.3338 13.2528C53.1671 14.9479 53.5838 16.9318 53.5838 19.2045C53.5838 21.4583 53.1671 23.428 52.3338 25.1136C51.5099 26.7992 50.3546 28.1108 48.8679 29.0483C47.3906 29.9858 45.6671 30.4545 43.6974 30.4545ZM43.6974 27.4432C45.1937 27.4432 46.4247 27.0597 47.3906 26.2926C48.3565 25.5256 49.0715 24.517 49.5355 23.267C49.9995 22.017 50.2315 20.6629 50.2315 19.2045C50.2315 17.7462 49.9995 16.3873 49.5355 15.1278C49.0715 13.8684 48.3565 12.8504 47.3906 12.0739C46.4247 11.2973 45.1937 10.9091 43.6974 10.9091C42.2012 10.9091 40.9702 11.2973 40.0043 12.0739C39.0384 12.8504 38.3234 13.8684 37.8594 15.1278C37.3954 16.3873 37.1634 17.7462 37.1634 19.2045C37.1634 20.6629 37.3954 22.017 37.8594 23.267C38.3234 24.517 39.0384 25.5256 40.0043 26.2926C40.9702 27.0597 42.2012 27.4432 43.6974 27.4432ZM66.9396 30.4545C65.1214 30.4545 63.5163 29.9953 62.1243 29.0767C60.7322 28.1487 59.6432 26.8419 58.8572 25.1562C58.0713 23.4612 57.6783 21.4583 57.6783 19.1477C57.6783 16.8561 58.0713 14.8674 58.8572 13.1818C59.6432 11.4962 60.737 10.1941 62.1385 9.27557C63.54 8.35701 65.1593 7.89773 66.9964 7.89773C68.4169 7.89773 69.5391 8.13447 70.3629 8.60795C71.1963 9.07197 71.8307 9.60227 72.2663 10.1989C72.7114 10.786 73.0571 11.2689 73.3033 11.6477H73.5874V0.90909H76.9396V30H73.701V26.6477H73.3033C73.0571 27.0455 72.7067 27.5473 72.2521 28.1534C71.7976 28.75 71.1489 29.285 70.3061 29.7585C69.4633 30.2225 68.3411 30.4545 66.9396 30.4545ZM67.3942 27.4432C68.7389 27.4432 69.8752 27.0928 70.8033 26.392C71.7313 25.6818 72.4368 24.7017 72.9197 23.4517C73.4027 22.1922 73.6442 20.7386 73.6442 19.0909C73.6442 17.4621 73.4074 16.0369 72.9339 14.8153C72.4605 13.5843 71.7597 12.6278 70.8317 11.946C69.9036 11.2547 68.7578 10.9091 67.3942 10.9091C65.9737 10.9091 64.79 11.2737 63.843 12.0028C62.9055 12.7225 62.2 13.7027 61.7266 14.9432C61.2625 16.1742 61.0305 17.5568 61.0305 19.0909C61.0305 20.6439 61.2673 22.0549 61.7408 23.3239C62.2237 24.5833 62.9339 25.5871 63.8714 26.3352C64.8184 27.0739 65.9927 27.4432 67.3942 27.4432ZM92.6925 30.4545C90.5902 30.4545 88.7768 29.9905 87.2521 29.0625C85.737 28.125 84.5675 26.8182 83.7436 25.142C82.9292 23.4564 82.522 21.4962 82.522 19.2614C82.522 17.0265 82.9292 15.0568 83.7436 13.3523C84.5675 11.6383 85.7133 10.303 87.1811 9.34659C88.6584 8.38068 90.3819 7.89773 92.3516 7.89773C93.4879 7.89773 94.6101 8.08712 95.718 8.46591C96.826 8.8447 97.8345 9.46023 98.7436 10.3125C99.6527 11.1553 100.377 12.2727 100.917 13.6648C101.457 15.0568 101.727 16.7708 101.727 18.8068V20.2273H84.9084V17.3295H98.3175C98.3175 16.0985 98.0713 15 97.5788 14.0341C97.0959 13.0682 96.4046 12.3059 95.505 11.7472C94.6148 11.1884 93.5637 10.9091 92.3516 10.9091C91.0163 10.9091 89.861 11.2405 88.8857 11.9034C87.9197 12.5568 87.1764 13.4091 86.6555 14.4602C86.1347 15.5114 85.8743 16.6383 85.8743 17.8409V19.7727C85.8743 21.4205 86.1584 22.8172 86.7266 23.9631C87.3042 25.0994 88.1044 25.9659 89.1271 26.5625C90.1499 27.1496 91.3383 27.4432 92.6925 27.4432C93.5732 27.4432 94.3686 27.3201 95.0788 27.0739C95.7985 26.8182 96.4188 26.4394 96.9396 25.9375C97.4605 25.4261 97.8629 24.7917 98.147 24.0341L101.386 24.9432C101.045 26.0417 100.472 27.0076 99.6669 27.8409C98.862 28.6648 97.8677 29.3087 96.6839 29.7727C95.5002 30.2273 94.1697 30.4545 92.6925 30.4545ZM110.178 0.90909V30H106.826V0.90909H110.178Z" fill="#2D2D2F"/>
</svg>
