<svg width="26" height="26" viewBox="0 0 26 26" fill="none" xmlns="http://www.w3.org/2000/svg">
<path d="M0 4.33333C0 3.13672 0.970051 2.16667 2.16667 2.16667H23.8333C25.03 2.16667 26 3.13672 26 4.33333C26 5.52995 25.03 6.5 23.8333 6.5H2.16667C0.97005 6.5 0 5.52995 0 4.33333Z" fill="#2D2D2F"/>
<path d="M0 13C0 11.8034 0.970051 10.8333 2.16667 10.8333H23.8333C25.03 10.8333 26 11.8034 26 13C26 14.1966 25.03 15.1667 23.8333 15.1667H2.16667C0.97005 15.1667 0 14.1966 0 13Z" fill="#2D2D2F"/>
<path d="M26 21.6667C26 20.4701 25.03 19.5 23.8333 19.5H2.16667C0.97005 19.5 0 20.4701 0 21.6667C0 22.8633 0.970051 23.8333 2.16667 23.8333H23.8333C25.03 23.8333 26 22.8633 26 21.6667Z" fill="#2D2D2F"/>
</svg>
