<svg width="18" height="12" viewBox="0 0 18 12" fill="none" xmlns="http://www.w3.org/2000/svg">
<path d="M2.25 1.5C1.94062 1.5 1.6875 1.725 1.6875 2V2.69062L7.75195 7.11562C8.47969 7.64687 9.52383 7.64687 10.2516 7.11562L16.3125 2.69062V2C16.3125 1.725 16.0594 1.5 15.75 1.5H2.25ZM1.6875 4.63125V10C1.6875 10.275 1.94062 10.5 2.25 10.5H15.75C16.0594 10.5 16.3125 10.275 16.3125 10V4.63125L11.3203 8.275C9.97031 9.25937 8.02617 9.25937 6.67969 8.275L1.6875 4.63125ZM0 2C0 0.896875 1.00898 0 2.25 0H15.75C16.991 0 18 0.896875 18 2V10C18 11.1031 16.991 12 15.75 12H2.25C1.00898 12 0 11.1031 0 10V2Z" fill="#A6A6A6"/>
</svg>
