<svg width="12" height="12" viewBox="0 0 12 12" fill="none" xmlns="http://www.w3.org/2000/svg">
<path d="M0.354841 2.0496C-0.113688 1.58107 -0.113688 0.820172 0.354841 0.351642C0.823372 -0.116888 1.58426 -0.116888 2.0528 0.351642L5.9997 4.30229L9.95072 0.355015C10.4192 -0.113515 11.1798 -0.113515 11.6483 0.355015C12.1168 0.823546 12.1168 1.58444 11.6483 2.05297L7.69765 5.99987L11.6445 9.95052C12.1131 10.419 12.1131 11.1799 11.6445 11.6485C11.176 12.117 10.4151 12.117 9.94659 11.6485L5.9997 7.69782L2.04905 11.6447C1.58052 12.1133 0.819623 12.1133 0.351093 11.6447C-0.117437 11.1762 -0.117437 10.4153 0.351093 9.94677L4.30174 5.99987L0.354841 2.04922V2.0496Z" fill="black"/>
</svg>
