<svg width="18" height="12" viewBox="0 0 18 12" fill="none" xmlns="http://www.w3.org/2000/svg">
<path d="M16 1.28571C16.275 1.28571 16.5 1.47857 16.5 1.71429V2.57143H1.5V1.71429C1.5 1.47857 1.725 1.28571 2 1.28571H16ZM16.5 5.14286V10.2857C16.5 10.5214 16.275 10.7143 16 10.7143H2C1.725 10.7143 1.5 10.5214 1.5 10.2857V5.14286H16.5ZM2 0C0.896875 0 0 0.76875 0 1.71429V10.2857C0 11.2313 0.896875 12 2 12H16C17.1031 12 18 11.2313 18 10.2857V1.71429C18 0.76875 17.1031 0 16 0H2ZM3.75 8.14286C3.33437 8.14286 3 8.42946 3 8.78571C3 9.14196 3.33437 9.42857 3.75 9.42857H5.25C5.66563 9.42857 6 9.14196 6 8.78571C6 8.42946 5.66563 8.14286 5.25 8.14286H3.75ZM7.75 8.14286C7.33437 8.14286 7 8.42946 7 8.78571C7 9.14196 7.33437 9.42857 7.75 9.42857H11.25C11.6656 9.42857 12 9.14196 12 8.78571C12 8.42946 11.6656 8.14286 11.25 8.14286H7.75Z" fill="#88C737"/>
</svg>
