<svg width="11" height="15" viewBox="0 0 11 15" fill="none" xmlns="http://www.w3.org/2000/svg">
<path fill-rule="evenodd" clip-rule="evenodd" d="M2.39673 7.10118L5.50262 12.4984L8.67879 7.0057L8.68791 6.9909C8.85942 6.71247 8.99487 6.4042 9.09192 6.06111L9.09533 6.04907L9.09898 6.03709C9.19917 5.7082 9.25 5.36721 9.25 5.00977C9.25 4.47625 9.15363 3.99481 8.96946 3.55313C8.76845 3.0946 8.49886 2.70474 8.15983 2.37325L8.15022 2.36386L8.14082 2.35426C7.8071 2.01362 7.41418 1.74303 6.95147 1.54173C6.51059 1.34992 6.03121 1.25 5.5 1.25C4.96879 1.25 4.48941 1.34992 4.04853 1.54173C3.58339 1.74409 3.18178 2.01743 2.83506 2.36381C2.50243 2.69612 2.23397 3.08895 2.03055 3.55311C1.84638 3.99479 1.75 4.47624 1.75 5.00977C1.75 5.39535 1.80537 5.75754 1.91294 6.10143C2.02482 6.45912 2.1784 6.77804 2.37152 7.06386L2.39673 7.10118ZM0.881232 3.06152C1.14516 2.45605 1.50195 1.92871 1.95161 1.47949C2.41105 1.02051 2.94379 0.65918 3.54985 0.395508C4.15591 0.131836 4.80596 0 5.5 0C6.19404 0 6.84409 0.131836 7.45015 0.395508C8.05621 0.65918 8.58407 1.02051 9.03372 1.47949C9.49316 1.92871 9.85484 2.45605 10.1188 3.06152C10.3729 3.66699 10.5 4.31641 10.5 5.00977C10.5 5.48828 10.4316 5.95215 10.2947 6.40137C10.1676 6.85059 9.9868 7.26562 9.7522 7.64648L5.5 15L1.33578 7.76367C1.07185 7.37305 0.866569 6.94336 0.719941 6.47461C0.573314 6.00586 0.5 5.51758 0.5 5.00977C0.5 4.31641 0.627077 3.66699 0.881232 3.06152Z" fill="#4C505B"/>
<path fill-rule="evenodd" clip-rule="evenodd" d="M5.5 6.25C6.19036 6.25 6.75 5.69036 6.75 5C6.75 4.30964 6.19036 3.75 5.5 3.75C4.80964 3.75 4.25 4.30964 4.25 5C4.25 5.69036 4.80964 6.25 5.5 6.25ZM5.5 7.5C6.88071 7.5 8 6.38071 8 5C8 3.61929 6.88071 2.5 5.5 2.5C4.11929 2.5 3 3.61929 3 5C3 6.38071 4.11929 7.5 5.5 7.5Z" fill="#4C505B"/>
</svg>
