<svg width="14" height="13" viewBox="0 0 14 13" fill="none" xmlns="http://www.w3.org/2000/svg">
<path d="M7.76197 0.456978C7.62145 0.177714 7.32452 0 6.99842 0C6.67232 0 6.37803 0.177714 6.23487 0.456978L4.53014 3.81576L0.722993 4.35398C0.404847 4.39968 0.139726 4.61294 0.0416309 4.90489C-0.056464 5.19685 0.0230724 5.51927 0.251077 5.73507L3.01364 8.35254L2.36144 12.0515C2.30842 12.3562 2.44098 12.6659 2.70345 12.8462C2.96592 13.0264 3.31323 13.0493 3.59956 12.9045L7.00107 11.1655L10.4026 12.9045C10.6889 13.0493 11.0362 13.0289 11.2987 12.8462C11.5612 12.6634 11.6937 12.3562 11.6407 12.0515L10.9858 8.35254L13.7484 5.73507C13.9764 5.51927 14.0586 5.19685 13.9579 4.90489C13.8571 4.61294 13.5946 4.39968 13.2765 4.35398L9.4667 3.81576L7.76197 0.456978Z" fill="#FB9A3B"/>
</svg>
