<svg width="56" height="56" viewBox="0 0 56 56" fill="none" xmlns="http://www.w3.org/2000/svg">
<path fill-rule="evenodd" clip-rule="evenodd" d="M56 51.3348V55.9818H28V56H0V51.3531C0 49.2392 0.638021 47.3622 1.91406 45.7221C3.15365 44.082 4.73958 42.9704 6.67188 42.3872C7.10938 42.205 7.61979 42.0228 8.20312 41.8405C8.75 41.6583 9.40625 41.4579 10.1719 41.2392C10.3542 41.2027 10.5729 41.1481 10.8281 41.0752C11.0833 41.0023 11.4297 40.8929 11.8672 40.7472C12.1953 40.6743 12.5052 40.6014 12.7969 40.5285C13.0521 40.4191 13.3073 40.328 13.5625 40.2551C16.0052 39.5262 17.8464 38.6879 19.0859 37.7403C20.3255 36.7927 21.0911 35.5718 21.3828 34.0774C20.2891 32.9476 19.2865 31.5991 18.375 30.0319C17.4635 28.4647 16.6979 26.7882 16.0781 25.0023C15.4219 23.2164 14.9115 21.3941 14.5469 19.5353C14.1823 17.6401 14 15.7995 14 14.0137C14 11.4624 14.3646 9.29385 15.0938 7.50798C15.8229 5.7221 16.8255 4.28247 18.1016 3.18907C19.3776 2.05923 20.8542 1.25741 22.5312 0.783605C24.2448 0.273354 26.0677 0.0182292 28 0.0182292V0C29.9323 0 31.7552 0.255125 33.4688 0.765376C35.1458 1.23918 36.6224 2.041 37.8984 3.17084C39.1745 4.26424 40.1771 5.70387 40.9062 7.48975C41.6354 9.27563 42 11.4442 42 13.9954C42 15.7813 41.8177 17.6219 41.4531 19.5171C41.0885 21.3759 40.5781 23.1982 39.9219 24.9841C39.3021 26.7699 38.5365 28.4465 37.625 30.0137C36.7135 31.5809 35.7109 32.9294 34.6172 34.0592C34.9089 35.5535 35.6745 36.7745 36.9141 37.7221C38.1536 38.6697 39.9948 39.508 42.4375 40.2369C42.6927 40.3098 42.9479 40.4009 43.2031 40.5102C43.4948 40.5831 43.8047 40.656 44.1328 40.7289C44.5703 40.8747 44.9167 40.984 45.1719 41.0569C45.4271 41.1298 45.6458 41.1845 45.8281 41.221C46.5938 41.4396 47.25 41.6401 47.7969 41.8223C48.3802 42.0045 48.8906 42.1868 49.3281 42.369C51.2604 42.9522 52.8464 44.0638 54.0859 45.7039C55.362 47.344 56 49.221 56 51.3348ZM28 4.70159V4.71982C24.8646 4.71982 22.5312 5.44875 21 6.90661C19.4323 8.32802 18.6484 10.697 18.6484 14.0137C18.6484 15.5444 18.8125 17.1116 19.1406 18.7153C19.4323 20.3189 19.8516 21.8679 20.3984 23.3622C20.9453 24.8565 21.5833 26.2415 22.3125 27.5171C23.0417 28.8292 23.8438 29.9226 24.7188 30.7973L26.3594 32.492L25.9766 34.8428C25.5391 37.3941 24.4089 39.4351 22.5859 40.9658C20.763 42.4601 18.2109 43.7175 14.9297 44.738C14.638 44.8109 14.3646 44.9021 14.1094 45.0114C13.8177 45.0843 13.4896 45.1572 13.125 45.2301C12.5781 45.4123 12.2135 45.5399 12.0312 45.6128C11.8125 45.6492 11.612 45.6856 11.4297 45.7221C10.737 45.9408 10.1536 46.123 9.67969 46.2688C9.20573 46.4146 8.80469 46.5604 8.47656 46.7062L7.98438 46.8702C7 47.1617 6.19792 47.7267 5.57812 48.5649C4.95833 49.4032 4.64844 50.3326 4.64844 51.3531H28V51.3348H51.3516C51.3516 50.3143 51.0417 49.385 50.4219 48.5467C49.8021 47.7084 49 47.1435 48.0156 46.8519L47.5234 46.6879C47.1953 46.5421 46.7943 46.3963 46.3203 46.2506C45.8464 46.1048 45.263 45.9225 44.5703 45.7039C44.388 45.6674 44.1875 45.631 43.9688 45.5945C43.7865 45.5216 43.4219 45.3941 42.875 45.2118C42.5104 45.1389 42.1823 45.0661 41.8906 44.9932C41.6354 44.8838 41.362 44.7927 41.0703 44.7198C37.7891 43.6993 35.237 42.4419 33.4141 40.9476C31.5911 39.4169 30.4609 37.3759 30.0234 34.8246L29.6406 32.4738L31.2812 30.779C32.1562 29.9043 32.9583 28.8109 33.6875 27.4989C34.4167 26.2232 35.0547 24.8383 35.6016 23.344C36.1484 21.8497 36.5677 20.3007 36.8594 18.697C37.1875 17.0934 37.3516 15.5262 37.3516 13.9954C37.3516 10.6788 36.5677 8.30979 35 6.88838C33.4688 5.43052 31.1354 4.70159 28 4.70159Z" fill="#4C505B"/>
</svg>
